<?xml version="1.0" encoding="UTF-8" standalone="no"?>
<svg
   version="1.0"
   width="404.65067pt"
   height="337.80664pt"
   viewBox="0 0 404.65067 337.80664"
   preserveAspectRatio="xMidYMid"
   id="svg26"
   sodipodi:docname="yhdisteri.svg"
   inkscape:export-filename="yhdisteri_cropped.svg"
   inkscape:export-xdpi="96"
   inkscape:export-ydpi="96"
   xmlns:inkscape="http://www.inkscape.org/namespaces/inkscape"
   xmlns:sodipodi="http://sodipodi.sourceforge.net/DTD/sodipodi-0.dtd"
   xmlns="http://www.w3.org/2000/svg"
   xmlns:svg="http://www.w3.org/2000/svg">
  <defs
     id="defs30" />
  <sodipodi:namedview
     id="namedview28"
     pagecolor="#ffffff"
     bordercolor="#000000"
     borderopacity="0.25"
     inkscape:showpageshadow="2"
     inkscape:pageopacity="0.0"
     inkscape:pagecheckerboard="0"
     inkscape:deskcolor="#d1d1d1"
     inkscape:document-units="pt"
     showgrid="false" />
  <g
     transform="matrix(0.1,0,0,-0.1,-381.96287,747.20907)"
     fill="#000000"
     stroke="none"
     id="g24">
    <path
       d="m 5671.115,7455.0243 c -398,-108 -586,-540 -399,-918 74,-151 190,-252 357,-310 97,-35 260,-43 363,-19 236,56 427,251 481,492 21,96 15,240 -15,334 -60,190 -214,344 -411,411 -94,32 -278,36 -376,10 z m 284,-236 c 187,-56 305,-227 289,-418 -19,-227 -243,-399 -466,-358 -310,57 -440,420 -235,659 93,109 270,159 412,117 z"
       id="path2" />
    <path
       d="m 3879.115,6984.0243 c -41,-25 -66,-81 -58,-129 17,-107 405,-559 721,-841 157,-140 282,-238 495,-390 326,-232 427,-365 502,-654 18,-72 21,-121 27,-441 4,-261 9,-366 19,-382 28,-50 43,-53 258,-53 201,0 203,0 232,25 l 30,25 5,342 c 6,407 21,515 97,684 69,154 169,263 379,412 512,364 841,672 1169,1095 113,145 127,182 98,251 -21,52 -60,76 -120,76 -65,0 -81,-11 -158,-113 -310,-412 -598,-681 -1158,-1079 -183,-131 -255,-192 -323,-276 -105,-128 -183,-288 -229,-469 -12,-45 -24,-80 -28,-78 -4,3 -11,26 -15,51 -10,70 -71,239 -118,327 -54,102 -148,219 -235,294 -38,33 -161,126 -273,205 -502,357 -815,652 -1093,1030 -31,43 -70,85 -86,93 -40,21 -99,19 -138,-5 z"
       id="path4" />
  </g>
</svg>
