<?xml version="1.0" standalone="no"?>
<!DOCTYPE svg PUBLIC "-//W3C//DTD SVG 20010904//EN"
 "http://www.w3.org/TR/2001/REC-SVG-20010904/DTD/svg10.dtd">
<svg version="1.0" xmlns="http://www.w3.org/2000/svg"
 width="1024.000000pt" height="1024.000000pt" viewBox="0 0 1024.000000 1024.000000"
 preserveAspectRatio="xMidYMid meet">

<g transform="translate(0.000000,1024.000000) scale(0.100000,-0.100000)"
fill="#000000" stroke="none">
<path d="M4954 7661 c-398 -108 -586 -540 -399 -918 74 -151 190 -252 357
-310 97 -35 260 -43 363 -19 236 56 427 251 481 492 21 96 15 240 -15 334 -60
190 -214 344 -411 411 -94 32 -278 36 -376 10z m284 -236 c187 -56 305 -227
289 -418 -19 -227 -243 -399 -466 -358 -310 57 -440 420 -235 659 93 109 270
159 412 117z"/>
<path d="M3162 7190 c-41 -25 -66 -81 -58 -129 17 -107 405 -559 721 -841 157
-140 282 -238 495 -390 326 -232 427 -365 502 -654 18 -72 21 -121 27 -441 4
-261 9 -366 19 -382 28 -50 43 -53 258 -53 201 0 203 0 232 25 l30 25 5 342
c6 407 21 515 97 684 69 154 169 263 379 412 512 364 841 672 1169 1095 113
145 127 182 98 251 -21 52 -60 76 -120 76 -65 0 -81 -11 -158 -113 -310 -412
-598 -681 -1158 -1079 -183 -131 -255 -192 -323 -276 -105 -128 -183 -288
-229 -469 -12 -45 -24 -80 -28 -78 -4 3 -11 26 -15 51 -10 70 -71 239 -118
327 -54 102 -148 219 -235 294 -38 33 -161 126 -273 205 -502 357 -815 652
-1093 1030 -31 43 -70 85 -86 93 -40 21 -99 19 -138 -5z"/>
<path d="M5197 3780 c-93 -24 -174 -89 -210 -169 -29 -66 -29 -181 2 -244 43
-89 110 -130 287 -178 136 -36 164 -48 193 -85 63 -80 -18 -174 -149 -174 -89
0 -162 44 -181 111 -14 44 -19 45 -138 33 -59 -7 -61 -8 -61 -35 0 -51 39
-136 82 -179 80 -80 193 -116 336 -108 190 11 322 137 322 307 0 77 -23 139
-67 185 -49 51 -106 78 -242 115 -138 39 -186 62 -206 102 -34 64 11 130 100
149 97 20 197 -30 211 -107 l7 -35 45 6 c25 3 65 6 90 6 l45 0 -6 49 c-11 96
-70 176 -162 222 -55 27 -76 31 -162 35 -54 2 -115 -1 -136 -6z"/>
<path d="M1537 3723 c15 -27 94 -160 175 -296 l148 -248 0 -202 0 -203 95 1
95 0 0 200 0 200 179 298 179 297 -107 0 -107 0 -119 -200 -118 -200 -105 177
c-57 98 -111 188 -118 201 -14 21 -21 22 -120 22 l-105 0 28 -47z"/>
<path d="M2532 3274 l3 -496 90 -1 90 -2 3 213 2 212 215 0 215 0 2 -211 3
-212 93 -2 92 -1 0 498 0 498 -95 0 -96 0 3 -200 3 -200 -217 0 -218 0 0 200
0 200 -95 0 -95 0 2 -496z"/>
<path d="M3560 3272 l0 -497 213 3 c155 2 227 7 267 18 249 72 391 301 351
569 -30 194 -152 334 -340 389 -43 13 -102 16 -273 16 l-218 0 0 -498z m434
313 c60 -18 83 -33 130 -82 68 -72 98 -217 67 -329 -24 -88 -116 -181 -203
-204 -21 -6 -84 -12 -141 -13 l-102 -2 -3 323 -2 322 102 0 c63 0 122 -6 152
-15z"/>
<path d="M4572 3273 l3 -497 90 0 90 1 3 496 2 497 -95 0 -95 0 2 -497z"/>
<path d="M5772 3685 l0 -85 144 0 144 0 2 -411 3 -412 90 -1 90 -1 3 413 2
412 140 0 140 0 0 85 0 85 -379 0 -379 0 0 -85z"/>
<path d="M6687 3273 l3 -496 320 -3 320 -3 0 90 0 89 -230 0 -230 0 0 123 0
122 210 -3 210 -4 0 86 c0 75 -2 86 -17 86 -10 0 -103 2 -208 3 l-190 2 -3
118 -3 117 231 0 230 0 0 85 0 85 -322 0 -323 0 2 -497z"/>
<path d="M7540 3273 l0 -498 93 0 92 0 3 183 2 183 77 -3 77 -3 102 -180 102
-180 106 0 c58 0 106 3 106 6 0 3 -49 88 -110 190 -60 101 -110 187 -110 190
0 4 12 10 26 13 15 4 53 33 85 65 72 72 94 135 87 247 -6 90 -44 163 -113 215
-82 63 -116 69 -386 69 l-239 0 0 -497z m478 312 c70 -42 91 -147 42 -216 -38
-53 -88 -69 -220 -69 l-115 0 1 88 c0 48 1 118 2 156 l2 68 128 -4 c104 -3
133 -7 160 -23z"/>
<path d="M8492 3273 l3 -497 93 -1 92 -1 0 498 0 498 -95 0 -95 0 2 -497z"/>
</g>
</svg>
